<svg xmlns="http://www.w3.org/2000/svg" xmlns:xlink="http://www.w3.org/1999/xlink" id="visual" viewBox="0 0 3840 2160" width="100%" height="100%" version="1.1" preserveAspectRatio="none"><path d="M0 649L58.2 641.8C116.3 634.7 232.7 620.3 349 595.2C465.3 570 581.7 534 698 487.2C814.3 440.3 930.7 382.7 1047 404.2C1163.3 425.7 1279.7 526.3 1396 598.3C1512.3 670.3 1628.7 713.7 1745.2 703C1861.7 692.3 1978.3 627.7 2094.8 598.8C2211.3 570 2327.7 577 2444 526.5C2560.3 476 2676.7 368 2793 382.5C2909.3 397 3025.7 534 3142 573.7C3258.3 613.3 3374.7 555.7 3491 544.8C3607.3 534 3723.7 570 3781.8 588L3840 606L3840 0L3781.8 0C3723.7 0 3607.3 0 3491 0C3374.7 0 3258.3 0 3142 0C3025.7 0 2909.3 0 2793 0C2676.7 0 2560.3 0 2444 0C2327.7 0 2211.3 0 2094.8 0C1978.3 0 1861.7 0 1745.2 0C1628.7 0 1512.3 0 1396 0C1279.7 0 1163.3 0 1047 0C930.7 0 814.3 0 698 0C581.7 0 465.3 0 349 0C232.7 0 116.3 0 58.2 0L0 0Z" fill="#474747"/><path d="M0 887L58.2 876.2C116.3 865.3 232.7 843.7 349 804C465.3 764.3 581.7 706.7 698 659.8C814.3 613 930.7 577 1047 598.7C1163.3 620.3 1279.7 699.7 1396 760.8C1512.3 822 1628.7 865 1745.2 847C1861.7 829 1978.3 750 2094.8 714C2211.3 678 2327.7 685 2444 631C2560.3 577 2676.7 462 2793 480C2909.3 498 3025.7 649 3142 710.2C3258.3 771.3 3374.7 742.7 3491 721.2C3607.3 699.7 3723.7 685.3 3781.8 678.2L3840 671L3840 604L3781.8 586C3723.7 568 3607.3 532 3491 542.8C3374.7 553.7 3258.3 611.3 3142 571.7C3025.7 532 2909.3 395 2793 380.5C2676.7 366 2560.3 474 2444 524.5C2327.7 575 2211.3 568 2094.8 596.8C1978.3 625.7 1861.7 690.3 1745.2 701C1628.7 711.7 1512.3 668.3 1396 596.3C1279.7 524.3 1163.3 423.7 1047 402.2C930.7 380.7 814.3 438.3 698 485.2C581.7 532 465.3 568 349 593.2C232.7 618.3 116.3 632.7 58.2 639.8L0 647Z" fill="#3e3e3e"/><path d="M0 1297L58.2 1282.7C116.3 1268.3 232.7 1239.7 349 1214.5C465.3 1189.3 581.7 1167.7 698 1160.3C814.3 1153 930.7 1160 1047 1145.5C1163.3 1131 1279.7 1095 1396 1105.8C1512.3 1116.7 1628.7 1174.3 1745.2 1178C1861.7 1181.7 1978.3 1131.3 2094.8 1138.5C2211.3 1145.7 2327.7 1210.3 2444 1188.7C2560.3 1167 2676.7 1059 2793 1037.5C2909.3 1016 3025.7 1081 3142 1073.8C3258.3 1066.7 3374.7 987.3 3491 976.5C3607.3 965.7 3723.7 1023.3 3781.8 1052.2L3840 1081L3840 669L3781.8 676.2C3723.7 683.3 3607.3 697.7 3491 719.2C3374.7 740.7 3258.3 769.3 3142 708.2C3025.7 647 2909.3 496 2793 478C2676.7 460 2560.3 575 2444 629C2327.7 683 2211.3 676 2094.8 712C1978.3 748 1861.7 827 1745.2 845C1628.7 863 1512.3 820 1396 758.8C1279.7 697.7 1163.3 618.3 1047 596.7C930.7 575 814.3 611 698 657.8C581.7 704.7 465.3 762.3 349 802C232.7 841.7 116.3 863.3 58.2 874.2L0 885Z" fill="#353535"/><path d="M0 1427L58.2 1423.3C116.3 1419.7 232.7 1412.3 349 1405C465.3 1397.7 581.7 1390.3 698 1372.3C814.3 1354.3 930.7 1325.7 1047 1325.7C1163.3 1325.7 1279.7 1354.3 1396 1376C1512.3 1397.7 1628.7 1412.3 1745.2 1423.2C1861.7 1434 1978.3 1441 2094.8 1462.5C2211.3 1484 2327.7 1520 2444 1509.2C2560.3 1498.3 2676.7 1440.7 2793 1422.7C2909.3 1404.7 3025.7 1426.3 3142 1404.8C3258.3 1383.3 3374.7 1318.7 3491 1289.8C3607.3 1261 3723.7 1268 3781.8 1271.5L3840 1275L3840 1079L3781.8 1050.2C3723.7 1021.3 3607.3 963.7 3491 974.5C3374.7 985.3 3258.3 1064.7 3142 1071.8C3025.7 1079 2909.3 1014 2793 1035.5C2676.7 1057 2560.3 1165 2444 1186.7C2327.7 1208.3 2211.3 1143.7 2094.8 1136.5C1978.3 1129.3 1861.7 1179.7 1745.2 1176C1628.7 1172.3 1512.3 1114.7 1396 1103.8C1279.7 1093 1163.3 1129 1047 1143.5C930.7 1158 814.3 1151 698 1158.3C581.7 1165.7 465.3 1187.3 349 1212.5C232.7 1237.7 116.3 1266.3 58.2 1280.7L0 1295Z" fill="#2c2c2c"/><path d="M0 1513L58.2 1509.3C116.3 1505.7 232.7 1498.3 349 1494.7C465.3 1491 581.7 1491 698 1473C814.3 1455 930.7 1419 1047 1429.8C1163.3 1440.7 1279.7 1498.3 1396 1534.3C1512.3 1570.3 1628.7 1584.7 1745.2 1584.7C1861.7 1584.7 1978.3 1570.3 2094.8 1574C2211.3 1577.7 2327.7 1599.3 2444 1595.8C2560.3 1592.3 2676.7 1563.7 2793 1560C2909.3 1556.3 3025.7 1577.7 3142 1548.8C3258.3 1520 3374.7 1441 3491 1419.5C3607.3 1398 3723.7 1434 3781.8 1452L3840 1470L3840 1273L3781.8 1269.5C3723.7 1266 3607.3 1259 3491 1287.8C3374.7 1316.7 3258.3 1381.3 3142 1402.8C3025.7 1424.3 2909.3 1402.7 2793 1420.7C2676.7 1438.7 2560.3 1496.3 2444 1507.2C2327.7 1518 2211.3 1482 2094.8 1460.5C1978.3 1439 1861.7 1432 1745.2 1421.2C1628.7 1410.3 1512.3 1395.7 1396 1374C1279.7 1352.3 1163.3 1323.7 1047 1323.7C930.7 1323.7 814.3 1352.3 698 1370.3C581.7 1388.3 465.3 1395.7 349 1403C232.7 1410.3 116.3 1417.7 58.2 1421.3L0 1425Z" fill="#242424"/><path d="M0 1729L58.2 1718.2C116.3 1707.3 232.7 1685.7 349 1664C465.3 1642.3 581.7 1620.7 698 1606.3C814.3 1592 930.7 1585 1047 1603C1163.3 1621 1279.7 1664 1396 1682C1512.3 1700 1628.7 1693 1745.2 1700.3C1861.7 1707.7 1978.3 1729.3 2094.8 1732.8C2211.3 1736.3 2327.7 1721.7 2444 1703.7C2560.3 1685.7 2676.7 1664.3 2793 1657.2C2909.3 1650 3025.7 1657 3142 1646.2C3258.3 1635.3 3374.7 1606.7 3491 1606.7C3607.3 1606.7 3723.7 1635.3 3781.8 1649.7L3840 1664L3840 1468L3781.8 1450C3723.7 1432 3607.3 1396 3491 1417.5C3374.7 1439 3258.3 1518 3142 1546.8C3025.7 1575.7 2909.3 1554.3 2793 1558C2676.7 1561.7 2560.3 1590.3 2444 1593.8C2327.7 1597.3 2211.3 1575.7 2094.8 1572C1978.3 1568.3 1861.7 1582.7 1745.2 1582.7C1628.7 1582.7 1512.3 1568.3 1396 1532.3C1279.7 1496.3 1163.3 1438.7 1047 1427.8C930.7 1417 814.3 1453 698 1471C581.7 1489 465.3 1489 349 1492.7C232.7 1496.3 116.3 1503.7 58.2 1507.3L0 1511Z" fill="#222222"/><path d="M0 1945L58.2 1919.8C116.3 1894.7 232.7 1844.3 349 1808.3C465.3 1772.3 581.7 1750.7 698 1754.2C814.3 1757.7 930.7 1786.3 1047 1811.5C1163.3 1836.7 1279.7 1858.3 1396 1872.8C1512.3 1887.3 1628.7 1894.7 1745.2 1894.7C1861.7 1894.7 1978.3 1887.3 2094.8 1883.7C2211.3 1880 2327.7 1880 2444 1876.5C2560.3 1873 2676.7 1866 2793 1851.7C2909.3 1837.3 3025.7 1815.7 3142 1804.8C3258.3 1794 3374.7 1794 3491 1801.2C3607.3 1808.3 3723.7 1822.7 3781.8 1829.8L3840 1837L3840 1662L3781.8 1647.7C3723.7 1633.3 3607.3 1604.7 3491 1604.7C3374.7 1604.7 3258.3 1633.3 3142 1644.2C3025.7 1655 2909.3 1648 2793 1655.2C2676.7 1662.3 2560.3 1683.7 2444 1701.7C2327.7 1719.7 2211.3 1734.3 2094.8 1730.8C1978.3 1727.3 1861.7 1705.7 1745.2 1698.3C1628.7 1691 1512.3 1698 1396 1680C1279.7 1662 1163.3 1619 1047 1601C930.7 1583 814.3 1590 698 1604.3C581.7 1618.7 465.3 1640.3 349 1662C232.7 1683.7 116.3 1705.3 58.2 1716.2L0 1727Z" fill="#202020"/><path d="M0 2031L58.2 2009.5C116.3 1988 232.7 1945 349 1923.5C465.3 1902 581.7 1902 698 1902C814.3 1902 930.7 1902 1047 1927.2C1163.3 1952.3 1279.7 2002.7 1396 2031.5C1512.3 2060.3 1628.7 2067.7 1745.2 2064C1861.7 2060.3 1978.3 2045.7 2094.8 2024C2211.3 2002.3 2327.7 1973.7 2444 1966.5C2560.3 1959.3 2676.7 1973.7 2793 1962.8C2909.3 1952 3025.7 1916 3142 1905.2C3258.3 1894.3 3374.7 1908.7 3491 1923.2C3607.3 1937.7 3723.7 1952.3 3781.8 1959.7L3840 1967L3840 1835L3781.8 1827.8C3723.7 1820.7 3607.3 1806.3 3491 1799.2C3374.7 1792 3258.3 1792 3142 1802.8C3025.7 1813.7 2909.3 1835.3 2793 1849.7C2676.7 1864 2560.3 1871 2444 1874.5C2327.7 1878 2211.3 1878 2094.8 1881.7C1978.3 1885.3 1861.7 1892.7 1745.2 1892.7C1628.7 1892.7 1512.3 1885.3 1396 1870.8C1279.7 1856.3 1163.3 1834.7 1047 1809.5C930.7 1784.3 814.3 1755.7 698 1752.2C581.7 1748.7 465.3 1770.3 349 1806.3C232.7 1842.3 116.3 1892.7 58.2 1917.8L0 1943Z" fill="#1e1e1e"/><path d="M0 2161L58.2 2161C116.3 2161 232.7 2161 349 2161C465.3 2161 581.7 2161 698 2161C814.3 2161 930.7 2161 1047 2161C1163.3 2161 1279.7 2161 1396 2161C1512.3 2161 1628.7 2161 1745.2 2161C1861.7 2161 1978.3 2161 2094.8 2161C2211.3 2161 2327.7 2161 2444 2161C2560.3 2161 2676.7 2161 2793 2161C2909.3 2161 3025.7 2161 3142 2161C3258.3 2161 3374.7 2161 3491 2161C3607.3 2161 3723.7 2161 3781.8 2161L3840 2161L3840 1965L3781.8 1957.7C3723.7 1950.3 3607.3 1935.7 3491 1921.2C3374.7 1906.7 3258.3 1892.3 3142 1903.2C3025.7 1914 2909.3 1950 2793 1960.8C2676.7 1971.7 2560.3 1957.3 2444 1964.5C2327.7 1971.7 2211.3 2000.3 2094.8 2022C1978.3 2043.7 1861.7 2058.3 1745.2 2062C1628.7 2065.7 1512.3 2058.3 1396 2029.5C1279.7 2000.7 1163.3 1950.3 1047 1925.2C930.7 1900 814.3 1900 698 1900C581.7 1900 465.3 1900 349 1921.5C232.7 1943 116.3 1986 58.2 2007.5L0 2029Z" fill="#1c1c1c"/></svg>